<svg xmlns="http://www.w3.org/2000/svg" width="149" height="38" fill="none">
  <path fill="#000000" d="M29.42 19.5v-14h2.5l4.74 9.32 4.72-9.32h2.5v14h-2.12V9.16l-4.28 8.34h-1.64l-4.3-8.32V19.5h-2.12Zm20.905 0v-14h2.12v14h-2.12Zm8.56 0v-14h2.5l4.74 9.32 4.72-9.32h2.5v14h-2.12V9.16l-4.28 8.34h-1.64l-4.3-8.32V19.5h-2.12Zm20.905 0v-14h2.12v14h-2.12Zm8.561 0v-14h2.12l7.02 10.54V5.5h2.12v14h-2.12l-7.02-10.54V19.5h-2.12Zm24.162.24c-1.387 0-2.6-.307-3.64-.92a6.476 6.476 0 0 1-2.44-2.54c-.587-1.093-.88-2.353-.88-3.78 0-1.427.293-2.68.88-3.76a6.442 6.442 0 0 1 2.44-2.56c1.04-.613 2.253-.92 3.64-.92 1.386 0 2.6.307 3.64.92a6.314 6.314 0 0 1 2.42 2.56c.586 1.08.88 2.333.88 3.76 0 1.427-.294 2.687-.88 3.78a6.346 6.346 0 0 1-2.42 2.54c-1.04.613-2.254.92-3.64.92Zm0-1.9c.96 0 1.793-.213 2.5-.64.72-.427 1.28-1.04 1.68-1.84.4-.8.6-1.753.6-2.86s-.2-2.06-.6-2.86c-.4-.8-.96-1.413-1.68-1.84-.707-.427-1.54-.64-2.5-.64s-1.8.213-2.52.64c-.72.427-1.28 1.04-1.68 1.84-.387.8-.58 1.753-.58 2.86s.193 2.06.58 2.86c.4.8.96 1.413 1.68 1.84.72.427 1.56.64 2.52.64Z"/>
  <path fill="#000000" d="M.592 35.5v-5.6H2.4c.437 0 .795.072 1.072.216.277.144.483.341.616.592.133.25.2.528.2.832 0 .352-.096.67-.288.952-.187.283-.48.483-.88.6L4.344 35.5h-.792l-1.136-2.312H1.264V35.5H.592Zm.672-2.84h1.088c.432 0 .747-.104.944-.312.197-.208.296-.475.296-.8 0-.33-.099-.592-.296-.784-.192-.197-.51-.296-.952-.296h-1.08v2.192Zm5.51 2.84v-5.6h3.464v.552H7.446v1.952h2.552v.544H7.446v2h2.792v.552H6.774Zm7.74.096c-.41 0-.768-.075-1.072-.224a1.673 1.673 0 0 1-.704-.624 1.725 1.725 0 0 1-.248-.928h.704a1.162 1.162 0 0 0 .592 1.048c.197.107.44.16.728.16.379 0 .672-.09.88-.272a.865.865 0 0 0 .312-.68c0-.224-.048-.403-.144-.536a1.053 1.053 0 0 0-.392-.336 3.064 3.064 0 0 0-.56-.224 18.615 18.615 0 0 1-.656-.216c-.432-.15-.752-.333-.96-.552-.208-.224-.312-.515-.312-.872a1.409 1.409 0 0 1 .208-.792c.144-.235.346-.416.608-.544.267-.133.581-.2.944-.2.357 0 .666.067.928.2a1.51 1.51 0 0 1 .848 1.352h-.704a.955.955 0 0 0-.12-.456.923.923 0 0 0-.368-.376 1.166 1.166 0 0 0-.608-.144c-.304-.005-.555.072-.752.232-.192.16-.288.381-.288.664 0 .24.066.424.2.552.139.128.33.235.576.32.245.08.528.173.848.28.266.096.506.208.72.336.213.128.379.293.496.496.122.203.184.461.184.776 0 .267-.07.52-.208.76a1.55 1.55 0 0 1-.632.576c-.277.15-.627.224-1.048.224Zm5.46-.096v-5.048h-1.672V29.9h4.016v.552h-1.672V35.5h-.672Zm3.62 0 2.064-5.6h.712l2.056 5.6h-.712l-.512-1.44h-2.384l-.52 1.44h-.704Zm1.424-1.984h1.984l-.992-2.768-.992 2.768Zm7.462 2.08c-.384 0-.733-.075-1.048-.224a1.768 1.768 0 0 1-.744-.712c-.187-.32-.28-.728-.28-1.224V29.9h.672v3.544c0 .544.13.939.392 1.184.261.245.603.368 1.024.368.421 0 .76-.123 1.016-.368s.384-.64.384-1.184V29.9h.672v3.536c0 .496-.093.904-.28 1.224-.187.32-.437.557-.752.712-.315.15-.667.224-1.056.224Zm4.666-.096v-5.6h1.808c.437 0 .795.072 1.072.216.277.144.483.341.616.592.133.25.2.528.2.832 0 .352-.096.67-.288.952-.187.283-.48.483-.88.6l1.224 2.408h-.792l-1.136-2.312H37.818V35.5h-.672Zm.672-2.84h1.088c.432 0 .747-.104.944-.312.197-.208.296-.475.296-.8 0-.33-.099-.592-.296-.784-.192-.197-.51-.296-.952-.296h-1.08v2.192Zm5.158 2.84 2.064-5.6h.712l2.056 5.6h-.712l-.512-1.44H44.2l-.52 1.44h-.704Zm1.424-1.984h1.984l-.992-2.768-.992 2.768Zm5.68 1.984v-5.6h.673l2.984 4.488V29.9h.672v5.6h-.672l-2.984-4.488V35.5h-.672Zm8.268 0v-5.048h-1.672V29.9h4.016v.552H59.02V35.5h-.672Zm4.087-2.04v-.568h3.168v.568h-3.168Zm5.661 2.04v-5.6h.672v2.472h2.904V29.9h.672v5.6h-.672v-2.576h-2.904V35.5h-.672Zm9.414.096c-.55 0-1.032-.12-1.448-.36a2.597 2.597 0 0 1-.968-1.024c-.23-.437-.344-.941-.344-1.512 0-.57.114-1.072.344-1.504.234-.437.557-.779.968-1.024.416-.245.898-.368 1.448-.368.554 0 1.037.123 1.448.368.416.245.738.587.968 1.024.23.432.344.933.344 1.504 0 .57-.115 1.075-.344 1.512-.23.437-.552.779-.968 1.024-.41.24-.894.36-1.448.36Zm0-.592c.41 0 .77-.09 1.08-.272a1.87 1.87 0 0 0 .728-.792c.176-.347.264-.76.264-1.24s-.088-.89-.264-1.232a1.819 1.819 0 0 0-.728-.784c-.31-.187-.67-.28-1.08-.28-.41 0-.774.093-1.088.28-.31.181-.552.443-.728.784-.17.341-.256.752-.256 1.232s.085.893.256 1.24c.176.341.418.605.728.792a2.14 2.14 0 0 0 1.088.272Zm6.192.496v-5.048H82.03V29.9h4.016v.552h-1.672V35.5h-.672Zm4.605 0v-5.6h3.464v.552h-2.792v1.952h2.552v.544h-2.552v2h2.792v.552h-3.464Zm5.955 0v-5.6h.672v5.064h2.608v.536h-3.28Zm11.657.096c-.55 0-1.024-.12-1.424-.36a2.489 2.489 0 0 1-.92-1.016c-.219-.437-.328-.944-.328-1.52 0-.57.109-1.072.328-1.504.218-.437.525-.779.92-1.024.4-.245.874-.368 1.424-.368.64 0 1.16.155 1.56.464.405.304.664.73.776 1.28h-.744a1.472 1.472 0 0 0-.528-.832c-.262-.213-.616-.32-1.064-.32-.4 0-.75.093-1.048.28a1.804 1.804 0 0 0-.696.792c-.16.341-.24.752-.24 1.232s.08.893.24 1.24c.165.341.397.605.696.792.298.181.648.272 1.048.272.448 0 .802-.101 1.064-.304a1.47 1.47 0 0 0 .528-.824h.744c-.112.539-.371.96-.776 1.264-.4.304-.92.456-1.56.456Zm7.285 0c-.549 0-1.032-.12-1.448-.36a2.603 2.603 0 0 1-.968-1.024c-.229-.437-.344-.941-.344-1.512 0-.57.115-1.072.344-1.504.235-.437.558-.779.968-1.024.416-.245.899-.368 1.448-.368.555 0 1.038.123 1.448.368.416.245.739.587.968 1.024.23.432.344.933.344 1.504 0 .57-.114 1.075-.344 1.512a2.522 2.522 0 0 1-.968 1.024c-.41.24-.893.36-1.448.36Zm0-.592c.411 0 .771-.09 1.08-.272.315-.187.558-.45.728-.792.176-.347.264-.76.264-1.24s-.088-.89-.264-1.232a1.814 1.814 0 0 0-.728-.784 2.047 2.047 0 0 0-1.08-.28c-.41 0-.773.093-1.088.28a1.887 1.887 0 0 0-.728.784c-.17.341-.256.752-.256 1.232s.086.893.256 1.24c.176.341.419.605.728.792.315.181.678.272 1.088.272Zm5.17.496v-5.6h.784l2.016 3.904 2-3.904h.792v5.6h-.672v-4.4l-1.872 3.6h-.504l-1.872-3.592V35.5h-.672Zm8.213 0v-5.6h1.84c.438 0 .798.072 1.08.216.283.144.491.339.624.584.139.245.208.523.208.832 0 .304-.066.579-.2.824a1.457 1.457 0 0 1-.624.592c-.282.144-.645.216-1.088.216h-1.168V35.5h-.672Zm.672-2.904h1.152c.448 0 .766-.093.952-.28.192-.192.288-.453.288-.784 0-.336-.096-.597-.288-.784-.186-.192-.504-.288-.952-.288h-1.152v2.136Zm5.401 2.904v-5.6h.672v5.064h2.608v.536h-3.28Zm5.643 0v-5.6h3.464v.552h-2.792v1.952h2.552v.544h-2.552v2h2.792v.552h-3.464Zm5.668 0 1.712-2.824-1.712-2.776h.76l1.376 2.24 1.312-2.24h.752l-1.712 2.808 1.72 2.792h-.76l-1.384-2.248-1.304 2.248h-.76Z"/>
</svg>
