<svg aria-hidden="true" style="position: absolute; width: 0; height: 0; overflow: hidden;" version="1.1" xmlns="http://www.w3.org/2000/svg" xmlns:xlink="http://www.w3.org/1999/xlink">
<defs>
<symbol id="icon-facebook" viewBox="0 0 25 32">
<path fill="none" stroke="#f7f7f7" style="stroke: var(--color1, #f7f7f7)" stroke-linejoin="round" stroke-linecap="round" stroke-miterlimit="4" stroke-width="1.5484" d="M18.581 2.065h-3.097c-2.851 0-5.161 2.311-5.161 5.161v0 3.097h-3.097v4.129h3.097v8.258h4.129v-8.258h3.097l1.032-4.129h-4.129v-3.097c0-0.57 0.462-1.032 1.032-1.032v0h3.097v-4.129z"></path>
</symbol>
<symbol id="icon-instagram" viewBox="0 0 32 32">
<path fill="none" stroke="#f7f7f7" style="stroke: var(--color1, #f7f7f7)" stroke-linejoin="round" stroke-linecap="round" stroke-miterlimit="4" stroke-width="2" d="M22.667 2.667h-13.333c-3.682 0-6.667 2.985-6.667 6.667v0 13.333c0 3.682 2.985 6.667 6.667 6.667v0h13.333c3.682 0 6.667-2.985 6.667-6.667v0-13.333c0-3.682-2.985-6.667-6.667-6.667v0z"></path>
<path fill="none" stroke="#f7f7f7" style="stroke: var(--color1, #f7f7f7)" stroke-linejoin="round" stroke-linecap="round" stroke-miterlimit="4" stroke-width="2" d="M21.333 15.16c0.042 0.251 0.066 0.54 0.066 0.834 0 2.946-2.388 5.333-5.333 5.333-2.688 0-4.911-1.988-5.28-4.574l-0.003-0.028c-0.032-0.22-0.050-0.473-0.050-0.731 0-2.946 2.388-5.333 5.333-5.333 2.651 0 4.85 1.934 5.264 4.468l0.004 0.031zM23.333 8.667h0.016"></path>
</symbol>
<symbol id="icon-twitter" viewBox="0 0 32 32">
<path fill="none" stroke="#f7f7f7" style="stroke: var(--color1, #f7f7f7)" stroke-linejoin="round" stroke-linecap="round" stroke-miterlimit="4" stroke-width="2" d="M30.667 4c-1.277 0.901-2.691 1.589-4.187 2.040-0.803-0.923-1.87-1.578-3.057-1.875s-2.437-0.222-3.58 0.214c-1.143 0.436-2.125 1.213-2.812 2.226s-1.047 2.212-1.031 3.435v1.333c-2.343 0.061-4.665-0.459-6.759-1.513s-3.894-2.609-5.241-4.527c0 0-5.333 12 6.667 17.333-2.746 1.864-6.017 2.799-9.333 2.667 12 6.667 26.667 0 26.667-15.333-0.001-0.371-0.037-0.742-0.107-1.107 1.361-1.342 2.321-3.036 2.773-4.893z"></path>
</symbol>
<symbol id="icon-mob-menu" viewBox="0 0 32 32">
<path fill="none" stroke="#f7f7f7" style="stroke: var(--color1, #f7f7f7)" stroke-linejoin="round" stroke-linecap="round" stroke-miterlimit="4" stroke-width="2.2857" d="M4 16h24M4 8h24M4 24h16"></path>
</symbol>
<symbol id="icon-x-close" viewBox="0 0 32 32">
<path fill="none" stroke="#f7f7f7" style="stroke: var(--color1, #f7f7f7)" stroke-linejoin="round" stroke-linecap="round" stroke-miterlimit="4" stroke-width="2.2857" d="M24 8l-16 16M8 8l16 16"></path>
</symbol>
</defs>
</svg>
